<svg width="63" height="64" viewBox="0 0 63 64" fill="none" xmlns="http://www.w3.org/2000/svg">
<path d="M31.5 0.811707C14.15 0.811707 0 14.9977 0 32.3919C0 49.786 14.15 63.972 31.5 63.972C48.85 63.972 63 49.786 63 32.3919C63 14.9977 48.85 0.811707 31.5 0.811707ZM31.5 59.9618C16.35 59.9618 4 47.5804 4 32.3919C4 17.2033 16.35 4.82188 31.5 4.82188C46.65 4.82188 59 17.2033 59 32.3919C59 47.5804 46.65 59.9618 31.5 59.9618Z" fill="#FFD700"/>
<path d="M33.5 27.6298H29.5V47.6807H33.5V27.6298Z" fill="#FFD700"/>
<path d="M33.5 18.1056H29.5V22.1158H33.5V18.1056Z" fill="#FFD700"/>
</svg>
