<svg width="53" height="67" viewBox="0 0 53 67" fill="none" xmlns="http://www.w3.org/2000/svg">
<path d="M0 63.4397C0 64.3171 0.348995 65.1586 0.970209 65.7791C1.59142 66.3995 2.43397 66.7481 3.3125 66.7481H49.6875C50.566 66.7481 51.4086 66.3995 52.0298 65.7791C52.651 65.1586 53 64.3171 53 63.4397V3.88854C53 3.01109 52.651 2.16959 52.0298 1.54915C51.4086 0.928701 50.566 0.580139 49.6875 0.580139H3.3125C2.43397 0.580139 1.59142 0.928701 0.970209 1.54915C0.348995 2.16959 0 3.01109 0 3.88854V63.4397ZM26.5 18.7763C27.8103 18.7763 29.0912 19.1644 30.1807 19.8915C31.2701 20.6185 32.1193 21.6519 32.6207 22.861C33.1221 24.07 33.2533 25.4005 32.9977 26.684C32.7421 27.9675 32.1111 29.1465 31.1846 30.0719C30.2581 30.9973 29.0776 31.6275 27.7925 31.8828C26.5073 32.1381 25.1753 32.007 23.9647 31.5062C22.7542 31.0054 21.7195 30.1573 20.9915 29.0692C20.2635 27.9811 19.875 26.7018 19.875 25.3931C19.875 23.6382 20.573 21.9552 21.8154 20.7143C23.0578 19.4734 24.7429 18.7763 26.5 18.7763ZM13.9489 47.609C14.837 44.9877 16.5254 42.7103 18.7768 41.0973C21.0282 39.4842 23.7292 38.6167 26.5 38.6167C29.2708 38.6167 31.9718 39.4842 34.2232 41.0973C36.4746 42.7103 38.163 44.9877 39.0511 47.609C39.2033 48.103 39.2366 48.6259 39.1484 49.1352C39.0602 49.6446 38.8529 50.1259 38.5433 50.5401C38.2338 50.9544 37.8308 51.2898 37.367 51.5192C36.9033 51.7486 36.3919 51.8655 35.8744 51.8603H17.1588C16.6401 51.8657 16.1275 51.7495 15.662 51.5208C15.1966 51.2922 14.7915 50.9576 14.4792 50.544C14.1669 50.1304 13.9563 49.6494 13.8642 49.1396C13.772 48.6298 13.8011 48.1055 13.9489 47.609Z" fill="#FFD700"/>
</svg>
