<svg width="800" height="800" viewBox="0 0 800 800" fill="none" xmlns="http://www.w3.org/2000/svg">
<path d="M276.431 256.904C263.414 243.886 263.414 222.781 276.431 209.763C289.449 196.746 310.554 196.746 323.572 209.763L590.238 476.43C603.256 489.447 603.256 510.553 590.238 523.57C577.221 536.588 556.115 536.588 543.098 523.57L276.431 256.904Z" fill="#D8D8D8"/>
<mask id="mask0_217_19" style="mask-type:luminance" maskUnits="userSpaceOnUse" x="266" y="200" width="335" height="334">
<path d="M276.431 256.904C263.414 243.886 263.414 222.781 276.431 209.763C289.449 196.746 310.554 196.746 323.572 209.763L590.238 476.43C603.256 489.447 603.256 510.553 590.238 523.57C577.221 536.588 556.115 536.588 543.098 523.57L276.431 256.904Z" fill="white"/>
</mask>
<g mask="url(#mask0_217_19)">
<path d="M800.002 0H0.00195312V800H800.002V0Z" fill="#FFD700"/>
</g>
<path d="M400.001 447.14L290.238 556.904C277.22 569.921 256.115 569.921 243.097 556.904C230.08 543.886 230.08 522.781 243.097 509.763L352.86 400L243.097 290.237C230.08 277.219 230.08 256.114 243.097 243.096C256.115 230.079 277.22 230.079 290.238 243.096L400.001 352.86L509.764 243.096C522.781 230.079 543.887 230.079 556.904 243.096C569.922 256.114 569.922 277.219 556.904 290.237L447.141 400L556.904 509.763C569.922 522.781 569.922 543.886 556.904 556.904C543.887 569.921 522.781 569.921 509.764 556.904L400.001 447.14Z" fill="#323232"/>
<mask id="mask1_217_19" style="mask-type:luminance" maskUnits="userSpaceOnUse" x="233" y="233" width="334" height="334">
<path d="M400.001 447.14L290.238 556.904C277.22 569.921 256.115 569.921 243.097 556.904C230.08 543.886 230.08 522.781 243.097 509.763L352.86 400L243.097 290.237C230.08 277.219 230.08 256.114 243.097 243.096C256.115 230.079 277.22 230.079 290.238 243.096L400.001 352.86L509.764 243.096C522.781 230.079 543.887 230.079 556.904 243.096C569.922 256.114 569.922 277.219 556.904 290.237L447.141 400L556.904 509.763C569.922 522.781 569.922 543.886 556.904 556.904C543.887 569.921 522.781 569.921 509.764 556.904L400.001 447.14Z" fill="white"/>
</mask>
<g mask="url(#mask1_217_19)">
<path d="M0 -1.52588e-05L0 800H800V-1.52588e-05H0Z" fill="white"/>
</g>
</svg>
