<svg width="70" height="64" viewBox="0 0 70 64" fill="none" xmlns="http://www.w3.org/2000/svg">
<path fill-rule="evenodd" clip-rule="evenodd" d="M70 10.7328C70 4.9191 65.299 0.206116 59.5 0.206116H10.5C4.70085 0.206116 0 4.9191 0 10.7328V42.313C0 48.1269 4.70085 52.8397 10.5 52.8397H31.5V56.3486H24.5C22.567 56.3486 21 57.9195 21 59.8575C21 61.7955 22.567 63.3664 24.5 63.3664H45.5C47.433 63.3664 49 61.7955 49 59.8575C49 57.9195 47.433 56.3486 45.5 56.3486H38.5V52.8397H59.5C65.299 52.8397 70 48.1269 70 42.313V10.7328ZM59.5 7.22393C61.433 7.22393 63 8.79494 63 10.7328V42.313C63 44.251 61.433 45.8219 59.5 45.8219H10.5C8.56695 45.8219 7 44.251 7 42.313V10.7328C7 8.79494 8.56695 7.22393 10.5 7.22393H59.5Z" fill="#FFD700"/>
</svg>
